<mxfile host="app.diagrams.net" modified="2023-12-12T07:41:51.862Z" agent="Mozilla/5.0 (Windows NT 10.0; Win64; x64) AppleWebKit/537.36 (KHTML, like Gecko) Chrome/120.0.0.0 Safari/537.36" etag="42NXSiP5HHspx-94ErcK" version="22.1.7" type="device">
  <diagram name="Trang-1" id="88ZqoRzm-MrHcvOh8tfi">
    <mxGraphModel dx="880" dy="478" grid="1" gridSize="10" guides="1" tooltips="1" connect="1" arrows="1" fold="1" page="1" pageScale="1" pageWidth="827" pageHeight="1169" math="0" shadow="0">
      <root>
        <mxCell id="0" />
        <mxCell id="1" parent="0" />
        <mxCell id="H4_N2EeKX8-YelqqudNl-13" style="edgeStyle=orthogonalEdgeStyle;rounded=0;orthogonalLoop=1;jettySize=auto;html=1;entryX=0.5;entryY=0;entryDx=0;entryDy=0;shape=link;strokeWidth=2;" edge="1" parent="1" source="H4_N2EeKX8-YelqqudNl-19" target="H4_N2EeKX8-YelqqudNl-11">
          <mxGeometry relative="1" as="geometry" />
        </mxCell>
        <mxCell id="H4_N2EeKX8-YelqqudNl-2" value="Bàn phục vụ" style="rounded=0;whiteSpace=wrap;html=1;" vertex="1" parent="1">
          <mxGeometry y="130" width="120" height="60" as="geometry" />
        </mxCell>
        <mxCell id="H4_N2EeKX8-YelqqudNl-4" value="Bàn 1" style="rounded=1;whiteSpace=wrap;html=1;" vertex="1" parent="1">
          <mxGeometry x="244" y="20" width="120" height="60" as="geometry" />
        </mxCell>
        <mxCell id="H4_N2EeKX8-YelqqudNl-5" value="Bàn 2" style="rounded=1;whiteSpace=wrap;html=1;" vertex="1" parent="1">
          <mxGeometry x="450" y="20" width="120" height="60" as="geometry" />
        </mxCell>
        <mxCell id="H4_N2EeKX8-YelqqudNl-7" value="Bàn 3" style="rounded=1;whiteSpace=wrap;html=1;" vertex="1" parent="1">
          <mxGeometry x="244" y="210" width="120" height="60" as="geometry" />
        </mxCell>
        <mxCell id="H4_N2EeKX8-YelqqudNl-8" value="Bàn 4" style="rounded=1;whiteSpace=wrap;html=1;" vertex="1" parent="1">
          <mxGeometry x="450" y="210" width="120" height="60" as="geometry" />
        </mxCell>
        <mxCell id="H4_N2EeKX8-YelqqudNl-14" style="edgeStyle=orthogonalEdgeStyle;rounded=0;orthogonalLoop=1;jettySize=auto;html=1;entryX=0.5;entryY=0;entryDx=0;entryDy=0;shape=link;strokeWidth=2;" edge="1" parent="1" source="H4_N2EeKX8-YelqqudNl-9" target="H4_N2EeKX8-YelqqudNl-10">
          <mxGeometry relative="1" as="geometry" />
        </mxCell>
        <mxCell id="H4_N2EeKX8-YelqqudNl-9" value="a" style="ellipse;whiteSpace=wrap;html=1;aspect=fixed;" vertex="1" parent="1">
          <mxGeometry x="390" y="35" width="30" height="30" as="geometry" />
        </mxCell>
        <mxCell id="H4_N2EeKX8-YelqqudNl-10" value="b" style="ellipse;whiteSpace=wrap;html=1;aspect=fixed;" vertex="1" parent="1">
          <mxGeometry x="390" y="240" width="30" height="30" as="geometry" />
        </mxCell>
        <mxCell id="H4_N2EeKX8-YelqqudNl-11" value="c" style="ellipse;whiteSpace=wrap;html=1;aspect=fixed;" vertex="1" parent="1">
          <mxGeometry x="600" y="225" width="30" height="30" as="geometry" />
        </mxCell>
        <mxCell id="H4_N2EeKX8-YelqqudNl-12" value="Bàn 5" style="rounded=1;whiteSpace=wrap;html=1;" vertex="1" parent="1">
          <mxGeometry x="657" y="210" width="120" height="60" as="geometry" />
        </mxCell>
        <mxCell id="H4_N2EeKX8-YelqqudNl-16" value="Cửa" style="verticalLabelPosition=bottom;html=1;verticalAlign=top;align=center;shape=mxgraph.floorplan.doorRight;aspect=fixed;" vertex="1" parent="1">
          <mxGeometry x="730" y="7.5" width="80" height="85" as="geometry" />
        </mxCell>
        <mxCell id="H4_N2EeKX8-YelqqudNl-18" style="edgeStyle=orthogonalEdgeStyle;rounded=0;orthogonalLoop=1;jettySize=auto;html=1;shape=link;strokeWidth=2;" edge="1" parent="1" source="H4_N2EeKX8-YelqqudNl-17">
          <mxGeometry relative="1" as="geometry">
            <mxPoint x="165" y="160" as="targetPoint" />
          </mxGeometry>
        </mxCell>
        <mxCell id="H4_N2EeKX8-YelqqudNl-17" value="Sạc" style="ellipse;whiteSpace=wrap;html=1;aspect=fixed;" vertex="1" parent="1">
          <mxGeometry x="150" y="35" width="30" height="30" as="geometry" />
        </mxCell>
        <mxCell id="H4_N2EeKX8-YelqqudNl-20" value="" style="edgeStyle=orthogonalEdgeStyle;rounded=0;orthogonalLoop=1;jettySize=auto;html=1;entryX=0.5;entryY=0;entryDx=0;entryDy=0;shape=link;strokeWidth=2;" edge="1" parent="1" source="H4_N2EeKX8-YelqqudNl-2" target="H4_N2EeKX8-YelqqudNl-19">
          <mxGeometry relative="1" as="geometry">
            <mxPoint x="120" y="160" as="sourcePoint" />
            <mxPoint x="615" y="225" as="targetPoint" />
            <Array as="points">
              <mxPoint x="165" y="160" />
            </Array>
          </mxGeometry>
        </mxCell>
        <mxCell id="H4_N2EeKX8-YelqqudNl-19" value="Start" style="ellipse;whiteSpace=wrap;html=1;aspect=fixed;" vertex="1" parent="1">
          <mxGeometry x="150" y="145" width="30" height="30" as="geometry" />
        </mxCell>
      </root>
    </mxGraphModel>
  </diagram>
</mxfile>
